<svg width="180" height="180" viewBox="0 0 180 180" fill="none" xmlns="http://www.w3.org/2000/svg">
<rect width="180" height="180" rx="20" fill="url(#paint0_linear_37_64)"/>
<rect x="3.01604" y="1.82001" width="34.6659" height="92.5269" rx="17.333" transform="matrix(0.969871 -0.243618 0.236545 0.971621 18.6604 49.0274)" stroke="white" stroke-width="5"/>
<rect x="1.83332" y="3.0381" width="34.6659" height="92.5269" rx="17.333" transform="matrix(0.969871 0.243618 -0.236545 0.971621 122.636 36.6396)" stroke="white" stroke-width="5"/>
<mask id="path-4-inside-1_37_64" fill="white">
<path fill-rule="evenodd" clip-rule="evenodd" d="M70.9406 61.2373C71.6179 60.0569 72.4198 58.9366 73.3428 57.898C79.8029 50.3474 90.9867 48.7546 99.3787 54.5509C102.211 56.5075 104.39 59.0741 105.859 61.9575L137.461 105.861C143.889 114.792 141.939 127.35 133.105 133.911C124.271 140.472 111.898 138.55 105.47 129.619L88.6915 106.309L72.8054 130.04C66.6872 139.179 54.3913 141.521 45.3418 135.271C36.2924 129.02 33.9161 116.544 40.0344 107.405L70.9406 61.2373Z"/>
</mask>
<path fill-rule="evenodd" clip-rule="evenodd" d="M70.9406 61.2373C71.6179 60.0569 72.4198 58.9366 73.3428 57.898C79.8029 50.3474 90.9867 48.7546 99.3787 54.5509C102.211 56.5075 104.39 59.0741 105.859 61.9575L137.461 105.861C143.889 114.792 141.939 127.35 133.105 133.911C124.271 140.472 111.898 138.55 105.47 129.619L88.6915 106.309L72.8054 130.04C66.6872 139.179 54.3913 141.521 45.3418 135.271C36.2924 129.02 33.9161 116.544 40.0344 107.405L70.9406 61.2373Z" fill="url(#paint1_linear_37_64)"/>
<path d="M70.9406 61.2373L75.0956 64.0188L75.1916 63.8754L75.2775 63.7257L70.9406 61.2373ZM73.3428 57.898L77.0801 61.2195L77.1114 61.1843L77.1421 61.1485L73.3428 57.898ZM99.3787 54.5509L96.5371 58.665L96.5371 58.665L99.3787 54.5509ZM105.859 61.9575L101.404 64.2274L101.578 64.5681L101.801 64.8785L105.859 61.9575ZM137.461 105.861L133.403 108.782L133.403 108.782L137.461 105.861ZM133.105 133.911L130.124 129.897L130.124 129.897L133.105 133.911ZM105.47 129.619L109.528 126.698L109.528 126.698L105.47 129.619ZM88.6915 106.309L92.7496 103.388L88.5426 97.5437L84.5366 103.528L88.6915 106.309ZM72.8054 130.04L76.9604 132.821L76.9604 132.821L72.8054 130.04ZM45.3418 135.271L48.1834 131.157L48.1834 131.157L45.3418 135.271ZM40.0344 107.405L35.8795 104.623L35.8795 104.623L40.0344 107.405ZM75.2775 63.7257C75.7865 62.8386 76.3882 61.9981 77.0801 61.2195L69.6055 54.5765C68.4513 55.8752 67.4494 57.2753 66.6038 58.7489L75.2775 63.7257ZM77.1421 61.1485C81.9521 55.5265 90.2725 54.338 96.5371 58.665L102.22 50.4369C91.7008 43.1711 77.6537 45.1683 69.5436 54.6475L77.1421 61.1485ZM96.5371 58.665C98.6662 60.1356 100.3 62.0598 101.404 64.2274L110.314 59.6876C108.481 56.0884 105.757 52.8794 102.22 50.4369L96.5371 58.665ZM101.801 64.8785L133.403 108.782L141.519 102.94L109.917 59.0365L101.801 64.8785ZM133.403 108.782C138.235 115.495 136.765 124.965 130.124 129.897L136.086 137.925C147.114 129.735 149.544 114.088 141.519 102.94L133.403 108.782ZM130.124 129.897C123.53 134.794 114.326 133.364 109.528 126.698L101.412 132.54C109.471 143.736 125.012 146.149 136.086 137.925L130.124 129.897ZM109.528 126.698L92.7496 103.388L84.6334 109.23L101.412 132.54L109.528 126.698ZM84.5366 103.528L68.6505 127.258L76.9604 132.821L92.8464 109.091L84.5366 103.528ZM68.6505 127.258C64.0842 134.079 54.9374 135.822 48.1834 131.157L42.5002 139.385C53.8453 147.221 69.2901 144.279 76.9604 132.821L68.6505 127.258ZM48.1834 131.157C41.3827 126.459 39.5915 117.055 44.1893 110.186L35.8795 104.623C28.2408 116.034 31.202 131.581 42.5003 139.385L48.1834 131.157ZM44.1893 110.186L75.0956 64.0188L66.7857 58.4559L35.8795 104.623L44.1893 110.186Z" fill="white" mask="url(#path-4-inside-1_37_64)"/>
<defs>
<linearGradient id="paint0_linear_37_64" x1="90" y1="0" x2="90" y2="180" gradientUnits="userSpaceOnUse">
<stop stop-color="#50A3FF"/>
<stop offset="1" stop-color="#1B7EF8"/>
</linearGradient>
<linearGradient id="paint1_linear_37_64" x1="88.944" y1="51.0491" x2="88.944" y2="138.772" gradientUnits="userSpaceOnUse">
<stop stop-color="#3F7EEE"/>
<stop offset="1" stop-color="#1B7EF8"/>
</linearGradient>
</defs>
</svg>
