<svg width="142" height="106" viewBox="0 0 142 106" fill="none" xmlns="http://www.w3.org/2000/svg">
<rect x="3.01602" y="1.82" width="34.665" height="92.5268" rx="17.3325" transform="matrix(0.96987 -0.243624 0.236539 0.971622 -0.339627 12.0274)" fill="#1B7EF8" stroke="white" stroke-width="5"/>
<rect x="1.83333" y="3.03811" width="34.665" height="92.5268" rx="17.3325" transform="matrix(0.96987 0.243624 -0.236539 0.971622 103.634 -0.360426)" fill="#1B7EF8" stroke="white" stroke-width="5"/>
<mask id="path-3-inside-1_37_48" fill="white">
<path fill-rule="evenodd" clip-rule="evenodd" d="M51.9391 24.2377C52.6166 23.0568 53.4188 21.9361 54.3422 20.8971C60.8021 13.3471 71.9853 11.7545 80.3768 17.5507C83.2096 19.5074 85.3885 22.0741 86.8576 24.9575L118.458 68.8608C124.887 77.7915 122.936 90.3498 114.103 96.9106C105.269 103.471 92.8963 101.55 86.4681 92.6192L69.6899 69.3091L53.8042 93.0397C47.6861 102.179 35.3906 104.521 26.3413 98.2704C17.292 92.02 14.9158 79.5441 21.0339 70.4048L51.9391 24.2377Z"/>
</mask>
<path fill-rule="evenodd" clip-rule="evenodd" d="M51.9391 24.2377C52.6166 23.0568 53.4188 21.9361 54.3422 20.8971C60.8021 13.3471 71.9853 11.7545 80.3768 17.5507C83.2096 19.5074 85.3885 22.0741 86.8576 24.9575L118.458 68.8608C124.887 77.7915 122.936 90.3498 114.103 96.9106C105.269 103.471 92.8963 101.55 86.4681 92.6192L69.6899 69.3091L53.8042 93.0397C47.6861 102.179 35.3906 104.521 26.3413 98.2704C17.292 92.02 14.9158 79.5441 21.0339 70.4048L51.9391 24.2377Z" fill="#1B7EF8"/>
<path d="M51.9391 24.2377L56.0941 27.0191L56.1901 26.8757L56.276 26.7259L51.9391 24.2377ZM54.3422 20.8971L58.0794 24.2188L58.1107 24.1835L58.1414 24.1477L54.3422 20.8971ZM80.3768 17.5507L83.2185 13.4367L83.2185 13.4367L80.3768 17.5507ZM86.8576 24.9575L82.4025 27.2273L82.5761 27.5681L82.7995 27.8785L86.8576 24.9575ZM118.458 68.8608L122.516 65.9398L122.516 65.9398L118.458 68.8608ZM114.103 96.9106L111.121 92.8965L111.121 92.8965L114.103 96.9106ZM86.4681 92.6192L90.5262 89.6983L90.5262 89.6983L86.4681 92.6192ZM69.6899 69.3091L73.748 66.3882L69.541 60.5434L65.535 66.5277L69.6899 69.3091ZM53.8042 93.0397L49.6492 90.2583L49.6492 90.2583L53.8042 93.0397ZM26.3413 98.2704L29.1829 94.1564L29.1829 94.1564L26.3413 98.2704ZM21.0339 70.4048L25.1888 73.1862L25.1888 73.1862L21.0339 70.4048ZM56.276 26.7259C56.7852 25.8384 57.3872 24.9976 58.0794 24.2188L50.605 17.5755C49.4503 18.8746 48.448 20.2752 47.6022 21.7495L56.276 26.7259ZM58.1414 24.1477C62.9512 18.5262 71.271 17.3379 77.5352 21.6647L83.2185 13.4367C72.6995 6.17104 58.6531 8.16794 50.5431 17.6465L58.1414 24.1477ZM77.5352 21.6647C79.6644 23.1354 81.2981 25.0597 82.4025 27.2273L91.3127 22.6877C89.4789 19.0885 86.7549 15.8793 83.2185 13.4367L77.5352 21.6647ZM82.7995 27.8785L114.4 71.7817L122.516 65.9398L90.9157 22.0366L82.7995 27.8785ZM114.4 71.7817C119.232 78.4948 117.762 87.9649 111.121 92.8965L117.084 100.925C128.111 92.7348 130.541 77.0882 122.516 65.9398L114.4 71.7817ZM111.121 92.8965C104.528 97.7934 95.3242 96.3641 90.5262 89.6983L82.41 95.5402C90.4685 106.736 106.009 109.149 117.084 100.925L111.121 92.8965ZM90.5262 89.6983L73.748 66.3882L65.6318 72.2301L82.41 95.5402L90.5262 89.6983ZM65.535 66.5277L49.6492 90.2583L57.9591 95.8211L73.8449 72.0906L65.535 66.5277ZM49.6492 90.2583C45.0831 97.0792 35.9366 98.8213 29.1829 94.1564L23.4997 102.384C34.8445 110.22 50.2891 107.279 57.9591 95.8211L49.6492 90.2583ZM29.1829 94.1564C22.3824 89.4592 20.5911 80.0544 25.1888 73.1862L16.8789 67.6233C9.24052 79.0338 12.2017 94.5807 23.4997 102.384L29.1829 94.1564ZM25.1888 73.1862L56.0941 27.0191L47.7842 21.4563L16.8789 67.6233L25.1888 73.1862Z" fill="white" mask="url(#path-3-inside-1_37_48)"/>
</svg>
